<?xml version="1.0" encoding="UTF-8" standalone="no"?>
<!-- Created with Inkscape (http://www.inkscape.org/) -->

<svg
   width="210mm"
   height="297mm"
   viewBox="0 0 210 297"
   version="1.1"
   id="svg1"
   inkscape:version="1.4 (e7c3feb1, 2024-10-09)"
   sodipodi:docname="P.svg"
   xmlns:inkscape="http://www.inkscape.org/namespaces/inkscape"
   xmlns:sodipodi="http://sodipodi.sourceforge.net/DTD/sodipodi-0.dtd"
   xmlns="http://www.w3.org/2000/svg"
   xmlns:svg="http://www.w3.org/2000/svg">
  <sodipodi:namedview
     id="namedview1"
     pagecolor="#ffffff"
     bordercolor="#000000"
     borderopacity="0.25"
     inkscape:showpageshadow="2"
     inkscape:pageopacity="0.0"
     inkscape:pagecheckerboard="0"
     inkscape:deskcolor="#d1d1d1"
     inkscape:document-units="mm"
     inkscape:zoom="0.59637432"
     inkscape:cx="399.07821"
     inkscape:cy="538.25255"
     inkscape:window-width="1512"
     inkscape:window-height="917"
     inkscape:window-x="0"
     inkscape:window-y="65"
     inkscape:window-maximized="0"
     inkscape:current-layer="layer1" />
  <defs
     id="defs1" />
  <g
     inkscape:label="Katman 1"
     inkscape:groupmode="layer"
     id="layer1"
     sodipodi:insensitive="true">
    <path
       style="font-size:190.349px;font-family:'Arial Rounded MT Bold';-inkscape-font-specification:'Arial Rounded MT Bold, Normal';fill:#2b0000;stroke-width:2.76081"
       d="M 91.851951,185.38728 H 66.571224 v 38.5717 q 0,8.272 -3.903641,12.54742 -3.903642,4.27542 -9.852048,4.27542 -6.227238,0 -10.037935,-4.18248 -3.810698,-4.27541 -3.810698,-12.45447 V 119.11832 q 0,-9.1085 4.182473,-13.01214 4.182473,-3.90364 13.29097,-3.90364 h 35.411606 q 15.707509,0 24.165399,2.41654 8.36495,2.3236 14.4063,7.71434 6.13429,5.39074 9.29438,13.19803 3.16009,7.80728 3.16009,17.56638 0,20.81943 -12.82625,31.60091 -12.82625,10.68854 -38.199919,10.68854 z m -6.691957,-62.45826 h -18.58877 v 41.63884 h 18.58877 q 9.759104,0 16.265176,-2.04476 6.59901,-2.04477 10.03793,-6.69196 3.43892,-4.64719 3.43892,-12.17564 0,-9.01556 -5.29779,-14.68513 -5.94841,-6.04135 -24.444236,-6.04135 z"
       id="text1"
       transform="scale(1.1548295,0.86592869)"
       aria-label="P" />
  </g>
</svg>
